# Created by Metasequoia

v -0.681692 0.099422 0.300000
v -0.739503 0.132622 0.300000
v -0.739503 0.132622 -0.300000
v -0.681692 0.099422 -0.300000
v 0.681692 0.099422 -0.300000
v 0.739503 0.132622 -0.300000
v 0.739503 0.132622 0.300000
v 0.681692 0.099422 0.300000
v 0.763880 0.132622 0.300000
v 0.760466 0.263000 0.300000
v 0.760466 0.263000 -0.300000
v 0.763880 0.132622 -0.300000
v 0.821692 0.099422 0.300000
v 0.821692 0.099422 -0.300000
v 0.742917 0.263000 -0.300000
v 0.742917 0.263000 0.300000
v 0.717500 0.264280 -0.300000
v 0.785883 0.264280 -0.300000
v 0.785883 0.264280 0.300000
v 0.717500 0.264280 0.300000
v 0.860320 0.114466 0.028235
v 0.801203 0.114466 0.028235
v 0.801203 0.114466 -0.033020
v 0.860320 0.114466 -0.033020
v 0.841417 0.132904 0.013314
v 0.822635 0.132904 -0.000111
v 0.836061 0.132904 -0.018893
v 0.854842 0.132904 -0.005468
v 0.647147 0.114466 -0.033417
v 0.706264 0.114466 -0.033417
v 0.706264 0.114466 0.027838
v 0.647147 0.114466 0.027838
v 0.671776 0.132904 -0.018496
v 0.690558 0.132904 -0.005070
v 0.677132 0.132904 0.013711
v 0.658351 0.132904 0.000286
v -0.717500 0.264280 -0.300000
v -0.717500 0.264280 0.300000
v -0.785884 0.264280 0.300000
v -0.785884 0.264280 -0.300000
v -0.763881 0.132622 -0.300000
v -0.760467 0.263000 -0.300000
v -0.760467 0.263000 0.300000
v -0.763881 0.132622 0.300000
v -0.821692 0.099422 -0.300000
v -0.821692 0.099422 0.300000
v -0.742917 0.263000 0.300000
v -0.742917 0.263000 -0.300000
v -0.801203 0.114466 -0.033020
v -0.801203 0.114466 0.028235
v -0.860320 0.114466 0.028235
v -0.860320 0.114466 -0.033020
v -0.836061 0.132904 -0.018893
v -0.822635 0.132904 -0.000111
v -0.841417 0.132904 0.013314
v -0.854842 0.132904 -0.005468
v -0.706264 0.114466 0.027838
v -0.706264 0.114466 -0.033417
v -0.647147 0.114466 -0.033417
v -0.647147 0.114466 0.027838
v -0.677132 0.132904 0.013711
v -0.690558 0.132904 -0.005070
v -0.671776 0.132904 -0.018496
v -0.658351 0.132904 0.000286
v -1.116023 0.000000 -0.122259
v -1.116023 0.097111 -0.122259
v -1.116023 0.097111 0.122259
v -1.116023 0.000000 0.122259
v 1.116023 0.097111 0.122259
v 1.116023 0.097111 -0.122259
v 1.116023 0.000000 0.122259
v 1.116023 0.000000 -0.122259
# 72 vertices

vt 0.40397 0.87148
vt 0.40397 0.92104
vt 0.00151 0.92104
vt 0.00151 0.87148
vt 0.40396 0.64679
vt 0.40396 0.69635
vt 0.00150 0.69635
vt 0.00150 0.64679
vt 0.55044 0.59604
vt 0.60744 0.59604
vt 0.60744 0.99849
vt 0.55044 0.99849
vt 0.50089 0.59604
vt 0.50089 0.99849
vt 0.40396 0.75334
vt 0.00150 0.75334
vt 0.91338 0.99850
vt 0.86094 0.99850
vt 0.86094 0.59604
vt 0.91338 0.59604
vt 0.76327 0.57673
vt 0.71384 0.57673
vt 0.71384 0.52551
vt 0.76327 0.52551
vt 0.10292 0.52415
vt 0.11276 0.53399
vt 0.10292 0.54383
vt 0.09308 0.53399
vt 0.16033 0.55513
vt 0.12698 0.55513
vt 0.12698 0.52058
vt 0.16033 0.52058
vt 0.05740 0.52350
vt 0.06745 0.53355
vt 0.05740 0.54360
vt 0.04735 0.53355
vt 0.40396 0.62722
vt 0.00151 0.62722
vt 0.00151 0.57478
vt 0.40396 0.57478
vt 0.79219 0.99849
vt 0.73519 0.99849
vt 0.73519 0.59604
vt 0.79219 0.59604
vt 0.84175 0.99849
vt 0.84175 0.59604
vt 0.40397 0.97803
vt 0.00151 0.97803
vt 0.47739 0.59123
vt 0.42251 0.59123
vt 0.42251 0.53827
vt 0.47739 0.53827
vt 0.79696 0.56012
vt 0.81159 0.54549
vt 0.82621 0.56012
vt 0.81159 0.57474
vt 0.56383 0.59123
vt 0.51094 0.59123
vt 0.51094 0.54019
vt 0.56383 0.54019
vt 0.87489 0.54712
vt 0.88898 0.56122
vt 0.87489 0.57531
vt 0.86079 0.56122
vt 0.88621 0.12622
vt 0.90383 0.12622
vt 0.90383 0.17056
vt 0.88621 0.17056
vt 0.46382 0.17056
vt 0.05904 0.17056
vt 0.05904 0.12622
vt 0.46382 0.12622
vt 0.48143 0.17056
vt 0.48143 0.12622
vt 0.88621 0.18817
vt 0.48143 0.18817
vt 0.48143 0.10861
vt 0.88621 0.10861
# 78 texture vertices

vn 0.49801 0.86717 0.00000
vn 0.85882 0.51228 0.00000
vn -0.49801 0.86717 0.00000
vn -0.85882 0.51228 0.00000
vn 0.85882 0.51228 0.00000
vn 0.99966 0.02618 0.00000
vn 0.49800 0.86718 0.00000
vn -0.99966 0.02618 0.00000
vn 0.00000 1.00000 0.00000
vn 0.00000 1.00000 0.00000
vn -0.85882 0.51228 0.00000
vn -0.99966 0.02618 0.00000
vn -0.49801 0.86717 0.00000
vn 0.99966 0.02618 0.00000
vn -1.00000 0.00000 0.00000
vn 1.00000 0.00000 0.00000
vn 0.00000 -1.00000 0.00000
vn 0.00000 0.00000 1.00000
vn 0.00000 0.00000 -1.00000
# 19 normal vertices

g obj1
s 1
usemtl rail
f 4/4/1 3/3/2 2/2/2 1/1/1
f 8/8/3 7/7/4 6/6/4 5/5/3
f 12/12/5 11/11/6 10/10/6 9/9/5
f 14/14/7 12/12/5 9/9/5 13/13/7
f 7/7/4 16/16/8 15/15/8 6/6/4
f 20/20/9 19/19/9 18/18/9 17/17/9
f 24/24/9 23/23/9 22/22/9 21/21/9
f 28/28/9 27/27/9 26/26/9 25/25/9
f 32/32/9 31/31/9 30/30/9 29/29/9
f 36/36/9 35/35/9 34/34/9 33/33/10
f 40/40/9 39/39/9 38/38/9 37/37/9
f 44/44/11 43/43/12 42/42/12 41/41/11
f 46/46/13 44/44/11 41/41/11 45/45/13
f 3/3/2 48/48/14 47/47/14 2/2/2
f 52/52/9 51/51/9 50/50/9 49/49/9
f 56/56/9 55/55/9 54/54/9 53/53/9
f 60/60/9 59/59/9 58/58/9 57/57/9
f 64/64/9 63/63/10 62/62/9 61/61/9
f 68/68/15 67/67/15 66/66/15 65/65/15
f 70/72/9 66/71/9 67/70/9 69/69/9
f 72/74/16 70/72/16 69/69/16 71/73/16
f 65/65/17 72/74/17 71/73/17 68/68/17
f 71/73/18 69/76/18 67/75/18 68/68/18
f 65/65/19 66/78/19 70/77/19 72/74/19
# 24 elements

